<svg width="24" height="24" viewBox="0 0 24 24" fill="none" xmlns="http://www.w3.org/2000/svg">
<path d="M7.16665 5.49999C6.16666 5.49999 5.49999 6.33332 5.49999 7.16665V16.8333C5.49999 17.8333 6.33332 18.5 7.16665 18.5H16.8333C17.8333 18.5 18.5 17.6667 18.5 16.8333V7.16665C18.5 6.16666 17.6666 5.49999 16.8333 5.49999H7.16665ZM16.8333 20H7.16665C5.33332 20 4 18.5 4 16.8333V7.16665C4 5.33332 5.49999 4 7.16665 4H16.8333C18.6666 4 20 5.49999 20 7.16665V16.8333C20 18.6667 18.6666 20 16.8333 20Z" fill="#BCBCBC"/>
<path d="M12.0013 9.59764C10.6679 9.59764 9.66796 10.5977 9.66796 11.931C9.66796 13.0977 10.6679 14.2643 12.0013 14.2643C13.3346 14.2643 14.3346 13.2643 14.3346 11.931C14.3346 10.7644 13.1679 9.59764 12.0013 9.59764ZM12.0013 15.7643C9.83461 15.7643 8.16797 14.0977 8.16797 11.931C8.16797 9.93102 9.83461 8.09766 12.0013 8.09766C14.1679 8.09766 15.8346 9.76435 15.8346 11.931C15.8346 13.931 14.1679 15.7643 12.0013 15.7643Z" fill="#BCBCBC"/>
<path d="M16.3337 6.43115C17.0003 6.43115 17.5004 6.93116 17.5004 7.43116C17.5004 7.93116 17.0003 8.43117 16.3337 8.43117C15.667 8.43117 15.167 7.93116 15.167 7.43116C15.167 6.93116 15.8337 6.43115 16.3337 6.43115Z" fill="#BCBCBC"/>
</svg>
