<svg width="24" height="24" viewBox="0 0 24 24" fill="none" xmlns="http://www.w3.org/2000/svg">
<path d="M20.762 7.79583C20.6044 7.63822 19.6587 7.63821 18.8707 7.63821C18.0826 7.63821 17.137 7.63822 16.9794 7.79583C16.8218 7.79583 16.349 8.89912 15.8761 9.84477C15.2457 10.948 14.4577 12.0513 13.9849 12.0513C13.3544 12.0513 13.512 10.16 13.512 8.74149C13.512 7.79584 13.3544 7.48064 13.1968 7.48064C12.8816 7.32303 11.9359 7.00778 11.9359 7.00778C11.9359 7.00778 9.25657 6.85018 8.94136 7.95344C9.41418 7.95344 10.3599 7.79585 10.0446 11.4209C10.0446 11.5785 9.5718 12.9969 8.31093 11.1056C7.99571 10.6328 6.73483 7.63821 6.41961 7.63821C5.00113 7.63821 3.74025 7.48061 3.10981 7.79583C2.63699 8.11104 3.74025 10.16 5.47395 12.8393C6.89242 15.0458 8.46852 16.7795 11.1479 17.2523C11.6207 17.2523 12.8816 17.4099 13.3544 17.0947C13.6696 16.9371 13.3544 15.0458 14.3 14.8882C14.7729 14.7306 16.349 16.9371 16.9794 17.0947C17.2946 17.2523 18.2403 17.2523 19.0283 17.2523C19.974 17.2523 20.9196 17.2524 21.0772 16.7795C21.2349 15.3611 18.3979 13.6274 18.2403 12.8393C18.2403 12.2089 19.3435 11.1056 19.974 10.3176C20.4468 9.37192 21.2348 8.11104 20.762 7.79583Z" fill="#BCBCBC"/>
</svg>
